<svg width="688" height="396" viewBox="0 0 688 396" fill="none" xmlns="http://www.w3.org/2000/svg">
<g opacity="0.3" filter="url(#filter0_f_4_19)">
<path fill-rule="evenodd" clip-rule="evenodd" d="M545.209 70.0007C534.173 104.669 508.914 131.19 486.037 159.462C466.326 183.821 445.32 205.535 420.292 224.373C392.414 245.356 366.122 274.558 331.273 275.946C296.311 277.339 266.951 251.407 238.067 231.634C210.911 213.044 191.575 187.427 168.166 164.286C136.126 132.612 80.8334 114.642 74.5661 70.0007C68.5073 26.8452 112.489 -6.65035 139.353 -40.9393C163.162 -71.3288 189.738 -98.2453 222.438 -118.738C256.015 -139.781 292.082 -166.981 331.273 -161.215C370.401 -155.46 387.038 -105.501 423.088 -89.2213C465.116 -70.2424 527.755 -96.4202 555.836 -59.8083C582.703 -24.778 558.604 27.919 545.209 70.0007Z" fill="#82FFD2"/>
</g>
<defs>
<filter id="filter0_f_4_19" x="-46" y="-282" width="734" height="678" filterUnits="userSpaceOnUse" color-interpolation-filters="sRGB">
<feFlood flood-opacity="0" result="BackgroundImageFix"/>
<feBlend mode="normal" in="SourceGraphic" in2="BackgroundImageFix" result="shape"/>
<feGaussianBlur stdDeviation="60" result="effect1_foregroundBlur_4_19"/>
</filter>
</defs>
</svg>
