<svg width="24" height="20" viewBox="0 0 24 20" fill="none" xmlns="http://www.w3.org/2000/svg">
<path d="M24 2.37575C23.1174 2.76628 22.157 3.04735 21.1676 3.15682C22.1948 2.53089 22.9639 1.54202 23.3308 0.375752C22.367 0.963885 21.3111 1.37629 20.2101 1.59469C19.7499 1.09003 19.1933 0.687999 18.575 0.413643C17.9567 0.139287 17.2899 -0.00151415 16.6163 1.22793e-05C13.8906 1.22793e-05 11.6986 2.26628 11.6986 5.04735C11.6986 5.43788 11.7447 5.82841 11.8197 6.20415C7.73849 5.98522 4.09855 3.98522 1.67864 0.923089C1.23771 1.69562 1.00665 2.57524 1.00949 3.47042C1.00949 5.2219 1.87766 6.76628 3.20154 7.67456C2.42136 7.64305 1.65944 7.42308 0.977767 7.03255V7.09468C0.977767 9.54734 2.66795 11.5799 4.92056 12.0473C4.49761 12.16 4.06251 12.2177 3.62553 12.2189C3.30537 12.2189 3.00252 12.1864 2.69679 12.142C3.31979 14.142 5.134 15.5947 7.29432 15.642C5.60413 17 3.48708 17.7988 1.18832 17.7988C0.775868 17.7988 0.395145 17.784 0 17.7367C2.18051 19.1716 4.7677 20 7.5539 20C16.599 20 21.5484 12.3136 21.5484 5.64202C21.5484 5.42309 21.5484 5.20415 21.534 4.98522C22.4915 4.26628 23.3308 3.37575 24 2.37575Z" fill="#3C4563"/>
</svg>
